<svg width="50" height="51" viewBox="0 0 50 51" fill="none" xmlns="http://www.w3.org/2000/svg">
<rect y="0.5" width="50" height="50" rx="25" fill="#CFCFCF"/>
<path d="M25.0002 14.3004C23.515 14.3004 22.0906 14.8904 21.0404 15.9406C19.9902 16.9909 19.4002 18.4152 19.4002 19.9004C19.4002 21.3857 19.9902 22.81 21.0404 23.8602C22.0906 24.9104 23.515 25.5004 25.0002 25.5004C26.4854 25.5004 27.9098 24.9104 28.96 23.8602C30.0102 22.81 30.6002 21.3857 30.6002 19.9004C30.6002 18.4152 30.0102 16.9909 28.96 15.9406C27.9098 14.8904 26.4854 14.3004 25.0002 14.3004ZM18.0128 26.9004C17.644 26.8988 17.2786 26.97 16.9374 27.11C16.5962 27.2499 16.2861 27.4559 16.0247 27.7161C15.7634 27.9762 15.556 28.2855 15.4145 28.626C15.273 28.9665 15.2002 29.3317 15.2002 29.7004C15.2002 32.0678 16.3664 33.8528 18.1892 35.0162C19.984 36.16 22.4032 36.7004 25.0002 36.7004C27.5972 36.7004 30.0164 36.16 31.8112 35.0162C33.634 33.8542 34.8002 32.0664 34.8002 29.7004C34.8002 28.9578 34.5052 28.2457 33.9801 27.7205C33.455 27.1954 32.7428 26.9004 32.0002 26.9004H18.0128Z" fill="#444F5A"/>
</svg>
